HIERARCHY
ROOT ui
{
	 OFFSET 0 0 0
	 CHANNELS 3 XPosition YPosition Z Position
	 EndSite
	 {
	 OFFSET 0 -1 0
	 }
}
ROOT li
{
	 OFFSET 0 0 0
	 CHANNELS 3 XPosition YPosition Z Position
	 EndSite
	 {
	 OFFSET 0 -1 0
	 }
}
ROOT ul
{
	 OFFSET 0 0 0
	 CHANNELS 3 XPosition YPosition Z Position
	 EndSite
	 {
	 OFFSET 0 -1 0
	 }
}
ROOT ll
{
	 OFFSET 0 0 0
	 CHANNELS 3 XPosition YPosition Z Position
	 EndSite
	 {
	 OFFSET 0 -1 0
	 }
}
ROOT tt
{
	 OFFSET 0 0 0
	 CHANNELS 3 XPosition YPosition Z Position
	 EndSite
	 {
	 OFFSET 0 -1 0
	 }
}
ROOT tb
{
	 OFFSET 0 0 0
	 CHANNELS 3 XPosition YPosition Z Position
	 EndSite
	 {
	 OFFSET 0 -1 0
	 }
}
ROOT td
{
	 OFFSET 0 0 0
	 CHANNELS 3 XPosition YPosition Z Position
	 EndSite
	 {
	 OFFSET 0 -1 0
	 }
}
ROOT v
{
	 OFFSET 0 0 0
	 CHANNELS 3 XPosition YPosition Z Position
	 EndSite
	 {
	 OFFSET 0 -1 0
	 }
}
ROOT bn
{
	 OFFSET 0 0 0
	 CHANNELS 3 XPosition YPosition Z Position
	 EndSite
	 {
	 OFFSET 0 -1 0
	 }
}
MOTION
Frames: 10
Frame Time: 0.002
0.0037949891090393066	0.003602489948272705	0		0.5052299194335937	-2.535206787109375	0		-1.0477491455078125	-0.1275613479614258	0		-0.738100341796875	-2.2911865234375	0		1.995551513671875	-1.3609190673828124	0		3.49511376953125	-0.7867734985351562	0		4.71875	-0.20451947021484376	0		5.80560791015625	0.25802203369140625	0		-0.397247802734375	5.8614912109375	0		
8.216270208358764E-4	8.519380092620849E-4	0		0.49215432739257814	-2.53088037109375	0		-1.12672705078125	-0.1293749237060547	0		-0.7761907958984375	-2.2894873046875	0		2.0304437255859376	-1.3672430419921875	0		3.4878232421875	-0.812727783203125	0		4.73472607421875	-0.2108236083984375	0		5.815435546875	0.2158815155029297	0		-0.39774417114257815	5.86374658203125	0		
-0.0031588079929351807	-0.0029062540531158447	0		0.5009503173828125	-2.53882080078125	0		-1.1266712646484376	-0.12910011291503906	0		-0.7403226318359375	-2.2926474609375	0		2.0265386962890624	-1.3561441650390624	0		3.484990966796875	-0.7987424926757812	0		4.71986865234375	-0.20278826904296876	0		5.818400390625	0.23100576782226562	0		-0.3972805480957031	5.862970703125	0		
-0.0030930960178375245	-0.0027305901050567625	0		0.4669971923828125	-2.525289794921875	0		-1.1156260986328126	-0.1299751739501953	0		-0.8014180908203125	-2.292722412109375	0		2.028559326171875	-1.3521280517578125	0		3.52478271484375	-0.8182586669921875	0		4.73298876953125	-0.19707919311523436	0		5.814234375	0.24632046508789063	0		-0.396821044921875	5.86317236328125	0		
-0.0030295300483703614	-0.0025760889053344726	0		0.5068175964355469	-2.5326259765625	0		-1.1115362548828125	-0.1267965621948242	0		-0.7126093139648437	-2.30254345703125	0		2.0366522216796876	-1.342195068359375	0		3.498211669921875	-0.7820184326171875	0		4.73507470703125	-0.1942478485107422	0		5.82349609375	0.23531080627441406	0		-0.39539767456054686	5.86234033203125	0		
0.0010754369497299194	0.001510545015335083	0		0.4739161376953125	-2.51614111328125	0		-1.114380126953125	-0.11756422424316407	0		-0.7496477661132812	-2.298939697265625	0		2.06281640625	-1.3264837646484375	0		3.54490869140625	-0.8096332397460938	0		4.74021484375	-0.1864503936767578	0		5.8271728515625	0.2504188690185547	0		-0.39499554443359375	5.86249658203125	0		
-0.002918574094772339	-0.0023303999900817873	0		0.5247506713867187	-2.5236474609375	0		-1.1183804931640624	-0.1213463363647461	0		-0.7256834716796875	-2.296067626953125	0		2.055892333984375	-1.3183992919921874	0		3.53516357421875	-0.7885928955078125	0		4.7402568359375	-0.18658815002441406	0		5.827205078125	0.250080078125	0		-0.3946340942382813	5.8626298828125	0		
-0.00287492299079895	-0.0022382750511169432	0		0.4727403869628906	-2.5179716796875	0		-1.1223770751953126	-0.12415595245361329	0		-0.7277685546875	-2.2979189453125	0		2.087966796875	-1.310776611328125	0		3.5449248046875	-0.8097789306640625	0		4.75029150390625	-0.18683103942871093	0		5.8386845703125	0.25810040283203123	0		-0.36026467895507813	5.86734228515625	0		
-0.00284092903137207	-0.002165503978729248	0		0.5006760559082031	-2.51824560546875	0		-1.1263944091796876	-0.12799308013916016	0		-0.779947998046875	-2.30820751953125	0		2.066104736328125	-1.2975267333984375	0		3.54208056640625	-0.7968078002929687	0		4.753388671875	-0.18097599792480468	0		5.84359814453125	0.23693719482421874	0		-0.34388955688476563	5.877240234375	0		
0.001229565978050232	0.001841958999633789	0		0.4527686767578125	-2.505642333984375	0		-1.1113519287109375	-0.12608111572265626	0		-0.7739115600585937	-2.301200439453125	0		2.130202880859375	-1.2882874755859375	0		3.56283203125	-0.8181050415039063	0		4.7572890625	-0.19111041259765624	0		5.83521240234375	0.26983905029296873	0		-0.3475243225097656	5.89135107421875	0		
